  0
SECTION
  2
HEADER
  9
$ACADVER
  1
AC1003
  9
$EXTMIN
 10
0.0600000000000002
 20
6.93
  9
$EXTMAX
 10
4.42
 20
0.199999999999999
  9
$INSUNITS
 70
1
  9
$INSBASE
 10
2.24
 20
3.565
999
Created with OMAX LAYOUT for Windows. (www.omax.com) 2/10/2025
  0
ENDSEC
  0
SECTION
  2
TABLES
  0
TABLE
  2
LAYER
 70
    10
  0
LAYER
  2
0
 70
     0
 62
     7
  6
CONTINUOUS
  0
LAYER
  2
1
 70
     0
 62
     7
  6
CONTINUOUS
  0
LAYER
  2
2
 70
     0
 62
     7
  6
CONTINUOUS
  0
LAYER
  2
3
 70
     0
 62
     7
  6
CONTINUOUS
  0
LAYER
  2
4
 70
     0
 62
     7
  6
CONTINUOUS
  0
LAYER
  2
5
 70
     0
 62
     7
  6
CONTINUOUS
  0
LAYER
  2
6
 70
     0
 62
     7
  6
CONTINUOUS
  0
LAYER
  2
7
 70
     0
 62
     7
  6
CONTINUOUS
  0
LAYER
  2
8
 70
     0
 62
     7
  6
CONTINUOUS
  0
LAYER
  2
9
 70
     0
 62
     7
  6
CONTINUOUS
  0
LAYER
  2
10
 70
     0
 62
     7
  6
CONTINUOUS
  0
LAYER
  2
11
 70
     0
 62
     7
  6
CONTINUOUS
  0
LAYER
  2
12
 70
     0
 62
     7
  6
CONTINUOUS
  0
LAYER
  2
13
 70
     0
 62
     7
  6
CONTINUOUS
  0
LAYER
  2
14
 70
     0
 62
     7
  6
CONTINUOUS
  0
LAYER
  2
15
 70
     0
 62
     7
  6
CONTINUOUS
  0
LAYER
  2
16
 70
     0
 62
     7
  6
CONTINUOUS
  0
LAYER
  2
17
 70
     0
 62
     7
  6
CONTINUOUS
  0
LAYER
  2
18
 70
     0
 62
     7
  6
CONTINUOUS
  0
LAYER
  2
19
 70
     0
 62
     7
  6
CONTINUOUS
  0
LAYER
  2
20
 70
     0
 62
     7
  6
CONTINUOUS
  0
LAYER
  2
21
 70
     0
 62
     7
  6
CONTINUOUS
  0
LAYER
  2
22
 70
     0
 62
     7
  6
CONTINUOUS
  0
LAYER
  2
23
 70
     0
 62
     7
  6
CONTINUOUS
  0
LAYER
  2
24
 70
     0
 62
     7
  6
CONTINUOUS
  0
LAYER
  2
25
 70
     0
 62
     7
  6
CONTINUOUS
  0
LAYER
  2
26
 70
     0
 62
     7
  6
CONTINUOUS
  0
LAYER
  2
27
 70
     0
 62
     7
  6
CONTINUOUS
  0
LAYER
  2
28
 70
     0
 62
     7
  6
CONTINUOUS
  0
LAYER
  2
29
 70
     0
 62
     7
  6
CONTINUOUS
  0
LAYER
  2
30
 70
     0
 62
     7
  6
CONTINUOUS
  0
LAYER
  2
31
 70
     0
 62
     7
  6
CONTINUOUS
  0
ENDTAB
  0
ENDSEC
  0
SECTION
  2
ENTITIES
  0
LINE
  8
0
  6
CONTINUOUS
 62
0
 10
0.0600000000000002
 20
0.199999999999999
 30
0.0
 11
3.29964956659704
 21
1.3497927717598
 31
0.0
  0
LINE
  8
0
  6
CONTINUOUS
 62
0
 10
3.2653656773609
 20
1.44403551401334
 30
0.0
 11
2.89976211201905
 21
1.94455146946441
 31
0.0
  0
LINE
  8
0
  6
CONTINUOUS
 62
0
 10
2.97502954849268
 20
1.94726795258439
 30
0.0
 11
3.90537086698738
 21
1.94905297123693
 31
0.0
  0
LINE
  8
0
  6
CONTINUOUS
 62
0
 10
3.91250199563934
 20
2.02403105655526
 30
0.0
 11
3.90023788798116
 21
2.95544853053276
 31
0.0
  0
LINE
  8
0
  6
CONTINUOUS
 62
0
 10
3.82497045150747
 20
2.95273204741447
 30
0.0
 11
2.90293028229758
 21
2.9545996218592
 31
0.0
  0
LINE
  8
0
  6
CONTINUOUS
 62
0
 10
2.83638852867627
 20
2.98988079671003
 30
0.0
 11
2.25
 21
3.45
 31
0.0
  0
LINE
  8
0
  6
CONTINUOUS
 62
0
 10
2.4
 20
3.5
 30
0.0
 11
0.704547576579333
 21
2.94988102769773
 31
0.0
  0
LINE
  8
0
  6
CONTINUOUS
 62
0
 10
0.712180969368267
 20
2.87495241107909
 30
0.0
 11
0.706920791197285
 21
1.9454987169842
 31
0.0
  0
LINE
  8
0
  6
CONTINUOUS
 62
0
 10
0.772272549849171
 20
1.90805924696981
 30
0.0
 11
1.42173770803081
 21
1.30365465196196
 31
0.0
  0
LINE
  8
0
  6
CONTINUOUS
 62
0
 10
1.4641350195977
 20
1.39453670464852
 30
0.0
 11
1.71537086698738
 21
1.94905297123693
 31
0.0
  0
LINE
  8
0
  6
CONTINUOUS
 62
0
 10
1.72250199563934
 20
2.02403105655526
 30
0.0
 11
1.71368448067777
 21
2.94597909492424
 31
0.0
  0
LINE
  8
0
  6
CONTINUOUS
 62
0
 10
1.76498575178303
 20
3.00112205328555
 30
0.0
 11
2.21
 21
3.6
 31
0.0
  0
LINE
  8
0
  6
CONTINUOUS
 62
0
 10
2.26
 20
3.45
 30
0.0
 11
3.63173770803081
 21
4.73365465196196
 31
0.0
  0
LINE
  8
0
  6
CONTINUOUS
 62
0
 10
3.6741350195977
 20
4.82453670464852
 30
0.0
 11
3.92537086698738
 21
5.37905297123693
 31
0.0
  0
LINE
  8
0
  6
CONTINUOUS
 62
0
 10
3.93250199563934
 20
5.45403105655526
 30
0.0
 11
3.92023788798116
 21
6.38544853053276
 31
0.0
  0
LINE
  8
0
  6
CONTINUOUS
 62
0
 10
3.84497045150747
 20
6.38273204741447
 30
0.0
 11
2.91454757657933
 21
6.37988102769773
 31
0.0
  0
LINE
  8
0
  6
CONTINUOUS
 62
0
 10
2.92218096936827
 20
6.30495241107909
 30
0.0
 11
2.91513530868573
 21
5.38246533040381
 31
0.0
  0
LINE
  8
0
  6
CONTINUOUS
 62
0
 10
2.88654625473599
 20
5.31278583364823
 30
0.0
 11
2.42
 21
4.23
 31
0.0
  0
LINE
  8
0
  6
CONTINUOUS
 62
0
 10
2.38464466094067
 20
4.41535533905933
 30
0.0
 11
1.12964956659704
 21
4.7797927717598
 31
0.0
  0
LINE
  8
0
  6
CONTINUOUS
 62
0
 10
1.0953656773609
 20
4.87403551401334
 30
0.0
 11
0.729762112019053
 21
5.37455146946441
 31
0.0
  0
LINE
  8
0
  6
CONTINUOUS
 62
0
 10
0.805029548492684
 20
5.37726795258439
 30
0.0
 11
1.73537086698738
 21
5.37905297123693
 31
0.0
  0
LINE
  8
0
  6
CONTINUOUS
 62
0
 10
1.74250199563934
 20
5.45403105655526
 30
0.0
 11
1.73023788798116
 21
6.38544853053276
 31
0.0
  0
LINE
  8
0
  6
CONTINUOUS
 62
0
 10
1.65497045150747
 20
6.38273204741447
 30
0.0
 11
0.732930282297577
 21
6.3845996218592
 31
0.0
  0
LINE
  8
0
  6
CONTINUOUS
 62
0
 10
0.666388528676273
 20
6.41988079671003
 30
0.0
 11
0.0799999999999998
 21
6.88
 31
0.0
  0
LINE
  8
0
  6
CONTINUOUS
 62
0
 10
0.23
 20
6.93
 30
0.0
 11
0.0799999999999998
 21
6.93
 31
0.0
  0
ARC
  8
3
  6
CONTINUOUS
 62
3
 10
3.39999999970115
 20
0.950000000221258
 30
0.0
 40
0.561999999701155
 50
104.999999975801
 51
180.000000022557
  0
ARC
  8
3
  6
CONTINUOUS
 62
3
 10
3.4
 20
0.949999999999994
 30
0.0
 40
0.561999999999999
 50
179.999999999999
 51
359.999999999999
  0
ARC
  8
3
  6
CONTINUOUS
 62
3
 10
3.40000000006184
 20
0.950000000072549
 30
0.0
 40
0.561999999938155
 50
359.999999992604
 51
105.000000007396
  0
ARC
  8
3
  6
CONTINUOUS
 62
3
 10
2.90000000017246
 20
1.95000000000259
 30
0.0
 40
0.124999999827544
 50
356.249999993623
 51
359.999999998813
  0
ARC
  8
3
  6
CONTINUOUS
 62
3
 10
2.9
 20
1.95
 30
0.0
 40
0.125
 50
359.999999999999
 51
180
  0
ARC
  8
3
  6
CONTINUOUS
 62
3
 10
2.89999999999955
 20
1.94999999999438
 30
0.0
 40
0.124999999999546
 50
179.999999997424
 51
356.250000002561
  0
ARC
  8
3
  6
CONTINUOUS
 62
3
 10
3.89999999997431
 20
1.9500000000277
 30
0.0
 40
0.124999999974315
 50
78.7499999856122
 51
180.000000012695
  0
ARC
  8
3
  6
CONTINUOUS
 62
3
 10
3.9
 20
1.95
 30
0.0
 40
0.125
 50
179.999999999999
 51
359.999999999999
  0
ARC
  8
3
  6
CONTINUOUS
 62
3
 10
3.90000000002148
 20
1.95000000001403
 30
0.0
 40
0.124999999978518
 50
359.999999993568
 51
78.7500000080387
  0
ARC
  8
3
  6
CONTINUOUS
 62
3
 10
3.89999999995589
 20
2.94999999998899
 30
0.0
 40
0.124999999955889
 50
176.249999993623
 51
179.999999994954
  0
ARC
  8
3
  6
CONTINUOUS
 62
3
 10
3.9
 20
2.95
 30
0.0
 40
0.125
 50
179.999999999999
 51
359.999999999999
  0
ARC
  8
3
  6
CONTINUOUS
 62
3
 10
3.90000000000078
 20
2.95000000001125
 30
0.0
 40
0.124999999999224
 50
359.999999994844
 51
176.250000005148
  0
ARC
  8
3
  6
CONTINUOUS
 62
3
 10
2.8999999999851
 20
2.95000000000427
 30
0.0
 40
0.124999999985097
 50
146.249999997723
 51
180.000000001958
  0
ARC
  8
3
  6
CONTINUOUS
 62
3
 10
2.9
 20
2.95
 30
0.0
 40
0.125
 50
179.999999999999
 51
359.999999999999
  0
ARC
  8
3
  6
CONTINUOUS
 62
3
 10
2.90000000000358
 20
2.95000000001155
 30
0.0
 40
0.124999999996421
 50
359.999999994706
 51
146.250000005202
  0
LINE
  8
3
  6
CONTINUOUS
 62
3
 10
2.4
 20
3.45
 30
0.0
 11
4.4
 21
3.45
 31
0.0
  0
LINE
  8
3
  6
CONTINUOUS
 62
3
 10
4.4
 20
3.45
 30
0.0
 11
4.4
 21
0.95
 31
0.0
  0
LINE
  8
3
  6
CONTINUOUS
 62
3
 10
4.4
 20
0.95
 30
0.0
 11
3.65
 21
0.2
 31
0.0
  0
LINE
  8
3
  6
CONTINUOUS
 62
3
 10
3.65
 20
0.2
 30
0.0
 11
3.15
 21
0.2
 31
0.0
  0
LINE
  8
3
  6
CONTINUOUS
 62
3
 10
3.15
 20
0.2
 30
0.0
 11
2.4
 21
0.95
 31
0.0
  0
LINE
  8
3
  6
CONTINUOUS
 62
3
 10
2.4
 20
0.95
 30
0.0
 11
2.4
 21
3.45
 31
0.0
  0
ARC
  8
3
  6
CONTINUOUS
 62
3
 10
0.710000000008419
 20
2.94999999999158
 30
0.0
 40
0.124999999991581
 50
269.999999996141
 51
3.85850899514555E-9
  0
ARC
  8
3
  6
CONTINUOUS
 62
3
 10
0.71
 20
2.95
 30
0.0
 40
0.125
 50
359.999999999999
 51
180
  0
ARC
  8
3
  6
CONTINUOUS
 62
3
 10
0.709999999991581
 20
2.94999999999158
 30
0.0
 40
0.124999999991581
 50
179.999999996141
 51
270.000000003858
  0
ARC
  8
3
  6
CONTINUOUS
 62
3
 10
0.710000000040536
 20
1.94999999999544
 30
0.0
 40
0.124999999959465
 50
324.374999989944
 51
2.08832357885681E-9
  0
ARC
  8
3
  6
CONTINUOUS
 62
3
 10
0.71
 20
1.95
 30
0.0
 40
0.125
 50
359.999999999999
 51
180
  0
ARC
  8
3
  6
CONTINUOUS
 62
3
 10
0.709999999994651
 20
1.94999999999182
 30
0.0
 40
0.124999999994651
 50
179.99999999625
 51
324.375000003544
  0
ARC
  8
3
  6
CONTINUOUS
 62
3
 10
1.20999999995083
 20
0.950000000106188
 30
0.0
 40
0.561999999950832
 50
59.9999999896027
 51
180.000000010826
  0
ARC
  8
3
  6
CONTINUOUS
 62
3
 10
1.21
 20
0.949999999999994
 30
0.0
 40
0.561999999999999
 50
179.999999999999
 51
359.999999999999
  0
ARC
  8
3
  6
CONTINUOUS
 62
3
 10
1.21000000008923
 20
0.950000000072549
 30
0.0
 40
0.561999999910769
 50
359.999999992604
 51
60.0000000035369
  0
ARC
  8
3
  6
CONTINUOUS
 62
3
 10
1.70999999997432
 20
1.9500000000277
 30
0.0
 40
0.124999999974315
 50
78.7499999856122
 51
180.000000012695
  0
ARC
  8
3
  6
CONTINUOUS
 62
3
 10
1.71
 20
1.95
 30
0.0
 40
0.125
 50
179.999999999999
 51
359.999999999999
  0
ARC
  8
3
  6
CONTINUOUS
 62
3
 10
1.71000000002148
 20
1.95000000001403
 30
0.0
 40
0.124999999978518
 50
359.999999993568
 51
78.7500000080387
  0
ARC
  8
3
  6
CONTINUOUS
 62
3
 10
1.70999999999552
 20
2.95000000002221
 30
0.0
 40
0.124999999995517
 50
41.2499999916316
 51
180.00000001018
  0
ARC
  8
3
  6
CONTINUOUS
 62
3
 10
1.71
 20
2.95
 30
0.0
 40
0.125
 50
179.999999999999
 51
359.999999999999
  0
ARC
  8
3
  6
CONTINUOUS
 62
3
 10
1.71000000001724
 20
2.95000000001679
 30
0.0
 40
0.124999999982757
 50
359.999999992304
 51
41.2500000000656
  0
LINE
  8
3
  6
CONTINUOUS
 62
3
 10
2.21
 20
3.45
 30
0.0
 11
2.21
 21
0.95
 31
0.0
  0
LINE
  8
3
  6
CONTINUOUS
 62
3
 10
2.21
 20
0.95
 30
0.0
 11
1.46
 21
0.2
 31
0.0
  0
LINE
  8
3
  6
CONTINUOUS
 62
3
 10
1.46
 20
0.2
 30
0.0
 11
0.96
 21
0.2
 31
0.0
  0
LINE
  8
3
  6
CONTINUOUS
 62
3
 10
0.96
 20
0.2
 30
0.0
 11
0.21
 21
0.95
 31
0.0
  0
LINE
  8
3
  6
CONTINUOUS
 62
3
 10
0.21
 20
0.95
 30
0.0
 11
0.21
 21
3.45
 31
0.0
  0
LINE
  8
3
  6
CONTINUOUS
 62
3
 10
0.21
 20
3.45
 30
0.0
 11
2.21
 21
3.45
 31
0.0
  0
ARC
  8
3
  6
CONTINUOUS
 62
3
 10
3.41999999995083
 20
4.38000000010619
 30
0.0
 40
0.561999999950831
 50
59.9999999896027
 51
180.000000010826
  0
ARC
  8
3
  6
CONTINUOUS
 62
3
 10
3.42
 20
4.37999999999999
 30
0.0
 40
0.561999999999999
 50
179.999999999999
 51
359.999999999999
  0
ARC
  8
3
  6
CONTINUOUS
 62
3
 10
3.42000000008923
 20
4.38000000007255
 30
0.0
 40
0.56199999991077
 50
359.999999992603
 51
60.0000000035368
  0
ARC
  8
3
  6
CONTINUOUS
 62
3
 10
3.91999999997431
 20
5.3800000000277
 30
0.0
 40
0.124999999974315
 50
78.749999985612
 51
180.000000012696
  0
ARC
  8
3
  6
CONTINUOUS
 62
3
 10
3.92
 20
5.38
 30
0.0
 40
0.125
 50
179.999999999999
 51
359.999999999999
  0
ARC
  8
3
  6
CONTINUOUS
 62
3
 10
3.92000000002148
 20
5.38000000001403
 30
0.0
 40
0.124999999978518
 50
359.999999993568
 51
78.7500000080387
  0
ARC
  8
3
  6
CONTINUOUS
 62
3
 10
3.9199999999559
 20
6.37999999998899
 30
0.0
 40
0.124999999955899
 50
176.249999993623
 51
179.999999994954
  0
ARC
  8
3
  6
CONTINUOUS
 62
3
 10
3.92
 20
6.38
 30
0.0
 40
0.125
 50
179.999999999999
 51
359.999999999999
  0
ARC
  8
3
  6
CONTINUOUS
 62
3
 10
3.92000000000078
 20
6.38000000001125
 30
0.0
 40
0.124999999999224
 50
359.999999994845
 51
176.250000005147
  0
ARC
  8
3
  6
CONTINUOUS
 62
3
 10
2.92000000000842
 20
6.37999999999158
 30
0.0
 40
0.124999999991581
 50
269.999999996141
 51
3.85850899514555E-9
  0
ARC
  8
3
  6
CONTINUOUS
 62
3
 10
2.92
 20
6.38
 30
0.0
 40
0.124999999999999
 50
359.999999999999
 51
180
  0
ARC
  8
3
  6
CONTINUOUS
 62
3
 10
2.91999999999158
 20
6.37999999999158
 30
0.0
 40
0.124999999991581
 50
179.999999996141
 51
270.000000003858
  0
ARC
  8
3
  6
CONTINUOUS
 62
3
 10
2.92000000000269
 20
5.379999999993
 30
0.0
 40
0.124999999997311
 50
241.874999996319
 51
3.20865806262893E-9
  0
ARC
  8
3
  6
CONTINUOUS
 62
3
 10
2.92
 20
5.38
 30
0.0
 40
0.125
 50
359.999999999999
 51
180
  0
ARC
  8
3
  6
CONTINUOUS
 62
3
 10
2.91999999999055
 20
5.37999999999182
 30
0.0
 40
0.124999999990549
 50
179.99999999625
 51
241.875000000971
  0
LINE
  8
3
  6
CONTINUOUS
 62
3
 10
2.42
 20
4.38
 30
0.0
 11
2.42
 21
6.88
 31
0.0
  0
LINE
  8
3
  6
CONTINUOUS
 62
3
 10
2.42
 20
6.88
 30
0.0
 11
4.42
 21
6.88
 31
0.0
  0
LINE
  8
3
  6
CONTINUOUS
 62
3
 10
4.42
 20
6.88
 30
0.0
 11
4.42
 21
4.38
 31
0.0
  0
LINE
  8
3
  6
CONTINUOUS
 62
3
 10
4.42
 20
4.38
 30
0.0
 11
3.67
 21
3.63
 31
0.0
  0
LINE
  8
3
  6
CONTINUOUS
 62
3
 10
3.67
 20
3.63
 30
0.0
 11
3.17
 21
3.63
 31
0.0
  0
LINE
  8
3
  6
CONTINUOUS
 62
3
 10
3.17
 20
3.63
 30
0.0
 11
2.42
 21
4.38
 31
0.0
  0
ARC
  8
3
  6
CONTINUOUS
 62
3
 10
1.22999999970115
 20
4.38000000022126
 30
0.0
 40
0.561999999701153
 50
104.999999975801
 51
180.000000022557
  0
ARC
  8
3
  6
CONTINUOUS
 62
3
 10
1.23
 20
4.37999999999999
 30
0.0
 40
0.561999999999999
 50
179.999999999999
 51
359.999999999999
  0
ARC
  8
3
  6
CONTINUOUS
 62
3
 10
1.23000000006184
 20
4.38000000007255
 30
0.0
 40
0.561999999938155
 50
359.999999992604
 51
105.000000007396
  0
ARC
  8
3
  6
CONTINUOUS
 62
3
 10
0.730000000172464
 20
5.38000000000259
 30
0.0
 40
0.124999999827536
 50
356.249999993622
 51
359.999999998812
  0
ARC
  8
3
  6
CONTINUOUS
 62
3
 10
0.73
 20
5.38
 30
0.0
 40
0.125
 50
359.999999999999
 51
180
  0
ARC
  8
3
  6
CONTINUOUS
 62
3
 10
0.729999999999546
 20
5.37999999999438
 30
0.0
 40
0.124999999999546
 50
179.999999997423
 51
356.250000002562
  0
ARC
  8
3
  6
CONTINUOUS
 62
3
 10
1.72999999997431
 20
5.3800000000277
 30
0.0
 40
0.124999999974315
 50
78.7499999856122
 51
180.000000012695
  0
ARC
  8
3
  6
CONTINUOUS
 62
3
 10
1.73
 20
5.38
 30
0.0
 40
0.125
 50
179.999999999999
 51
359.999999999999
  0
ARC
  8
3
  6
CONTINUOUS
 62
3
 10
1.73000000002148
 20
5.38000000001403
 30
0.0
 40
0.124999999978518
 50
359.999999993568
 51
78.7500000080387
  0
ARC
  8
3
  6
CONTINUOUS
 62
3
 10
1.72999999995595
 20
6.37999999998899
 30
0.0
 40
0.124999999955954
 50
176.249999993626
 51
179.999999994954
  0
ARC
  8
3
  6
CONTINUOUS
 62
3
 10
1.73
 20
6.38
 30
0.0
 40
0.125
 50
179.999999999999
 51
359.999999999999
  0
ARC
  8
3
  6
CONTINUOUS
 62
3
 10
1.73000000000078
 20
6.38000000001125
 30
0.0
 40
0.124999999999224
 50
359.999999994845
 51
176.250000005147
  0
ARC
  8
3
  6
CONTINUOUS
 62
3
 10
0.729999999985096
 20
6.38000000000427
 30
0.0
 40
0.124999999985097
 50
146.249999997723
 51
180.000000001958
  0
ARC
  8
3
  6
CONTINUOUS
 62
3
 10
0.729999999999999
 20
6.38
 30
0.0
 40
0.125
 50
179.999999999999
 51
359.999999999999
  0
ARC
  8
3
  6
CONTINUOUS
 62
3
 10
0.730000000003578
 20
6.38000000001155
 30
0.0
 40
0.124999999996421
 50
359.999999994705
 51
146.250000005203
  0
LINE
  8
3
  6
CONTINUOUS
 62
3
 10
0.23
 20
6.88
 30
0.0
 11
2.23
 21
6.88
 31
0.0
  0
LINE
  8
3
  6
CONTINUOUS
 62
3
 10
2.23
 20
6.88
 30
0.0
 11
2.23
 21
4.38
 31
0.0
  0
LINE
  8
3
  6
CONTINUOUS
 62
3
 10
2.23
 20
4.38
 30
0.0
 11
1.48
 21
3.63
 31
0.0
  0
LINE
  8
3
  6
CONTINUOUS
 62
3
 10
1.48
 20
3.63
 30
0.0
 11
0.98
 21
3.63
 31
0.0
  0
LINE
  8
3
  6
CONTINUOUS
 62
3
 10
0.98
 20
3.63
 30
0.0
 11
0.23
 21
4.38
 31
0.0
  0
LINE
  8
3
  6
CONTINUOUS
 62
3
 10
0.23
 20
4.38
 30
0.0
 11
0.23
 21
6.88
 31
0.0
  0
LINE
  8
9
  6
CONTINUOUS
 62
9
 10
3.29964956659704
 20
1.3497927717598
 30
0.0
 11
3.25454369666016
 21
1.49285031436849
 31
0.0
  0
LINE
  8
9
  6
CONTINUOUS
 62
9
 10
3.25454369666016
 20
1.49285031436849
 30
0.0
 11
3.2653656773609
 21
1.44403551401334
 31
0.0
  0
LINE
  8
9
  6
CONTINUOUS
 62
9
 10
2.89976211201905
 20
1.94455146946441
 30
0.0
 11
3.02473236540429
 21
1.94182460884622
 31
0.0
  0
LINE
  8
9
  6
CONTINUOUS
 62
9
 10
3.02473236540429
 20
1.94182460884622
 30
0.0
 11
2.97502954849268
 21
1.94726795258439
 31
0.0
  0
LINE
  8
9
  6
CONTINUOUS
 62
9
 10
3.90537086698738
 20
1.94905297123693
 30
0.0
 11
3.92438629025211
 21
2.07259816004679
 31
0.0
  0
LINE
  8
9
  6
CONTINUOUS
 62
9
 10
3.92438629025211
 20
2.07259816004679
 30
0.0
 11
3.91250199563934
 21
2.02403105655526
 31
0.0
  0
LINE
  8
9
  6
CONTINUOUS
 62
9
 10
3.90023788798116
 20
2.95544853053276
 30
0.0
 11
3.77526763459599
 21
2.95817539115376
 31
0.0
  0
LINE
  8
9
  6
CONTINUOUS
 62
9
 10
3.77526763459599
 20
2.95817539115376
 30
0.0
 11
3.82497045150747
 21
2.95273204741447
 31
0.0
  0
LINE
  8
9
  6
CONTINUOUS
 62
9
 10
2.90293028229758
 20
2.9545996218592
 30
0.0
 11
2.79606629846243
 21
3.01944627912757
 31
0.0
  0
LINE
  8
9
  6
CONTINUOUS
 62
9
 10
2.79606629846243
 20
3.01944627912757
 30
0.0
 11
2.83638852867627
 21
2.98988079671003
 31
0.0
  0
LINE
  8
9
  6
CONTINUOUS
 62
9
 10
2.25
 20
3.45
 30
0.0
 11
2.4
 21
3.45
 31
0.0
  0
LINE
  8
9
  6
CONTINUOUS
 62
9
 10
2.4
 20
3.45
 30
0.0
 11
2.4
 21
3.5
 31
0.0
  0
LINE
  8
9
  6
CONTINUOUS
 62
9
 10
0.704547576579333
 20
2.94988102769773
 30
0.0
 11
0.71
 21
2.825
 31
0.0
  0
LINE
  8
9
  6
CONTINUOUS
 62
9
 10
0.71
 20
2.825
 30
0.0
 11
0.712180969368267
 21
2.87495241107909
 31
0.0
  0
LINE
  8
9
  6
CONTINUOUS
 62
9
 10
0.706920791197285
 20
1.9454987169842
 30
0.0
 11
0.81160583556876
 21
1.87719028789275
 31
0.0
  0
LINE
  8
9
  6
CONTINUOUS
 62
9
 10
0.81160583556876
 20
1.87719028789275
 30
0.0
 11
0.772272549849171
 21
1.90805924696981
 31
0.0
  0
LINE
  8
9
  6
CONTINUOUS
 62
9
 10
1.42173770803081
 20
1.30365465196196
 30
0.0
 11
1.49100000001457
 21
1.43670627693947
 31
0.0
  0
LINE
  8
9
  6
CONTINUOUS
 62
9
 10
1.49100000001457
 20
1.43670627693947
 30
0.0
 11
1.4641350195977
 21
1.39453670464852
 31
0.0
  0
LINE
  8
9
  6
CONTINUOUS
 62
9
 10
1.71537086698738
 20
1.94905297123693
 30
0.0
 11
1.73438629025211
 21
2.07259816004679
 31
0.0
  0
LINE
  8
9
  6
CONTINUOUS
 62
9
 10
1.73438629025211
 20
2.07259816004679
 30
0.0
 11
1.72250199563934
 21
2.02403105655526
 31
0.0
  0
LINE
  8
9
  6
CONTINUOUS
 62
9
 10
1.71368448067777
 20
2.94597909492424
 30
0.0
 11
1.80397997593906
 21
3.03241822689304
 31
0.0
  0
LINE
  8
9
  6
CONTINUOUS
 62
9
 10
1.80397997593906
 20
3.03241822689304
 30
0.0
 11
1.76498575178303
 21
3.00112205328555
 31
0.0
  0
LINE
  8
9
  6
CONTINUOUS
 62
9
 10
2.21
 20
3.6
 30
0.0
 11
2.21
 21
3.45
 31
0.0
  0
LINE
  8
9
  6
CONTINUOUS
 62
9
 10
2.21
 20
3.45
 30
0.0
 11
2.26
 21
3.45
 31
0.0
  0
LINE
  8
9
  6
CONTINUOUS
 62
9
 10
3.63173770803081
 20
4.73365465196196
 30
0.0
 11
3.70100000001457
 21
4.86670627693947
 31
0.0
  0
LINE
  8
9
  6
CONTINUOUS
 62
9
 10
3.70100000001457
 20
4.86670627693947
 30
0.0
 11
3.6741350195977
 21
4.82453670464852
 31
0.0
  0
LINE
  8
9
  6
CONTINUOUS
 62
9
 10
3.92537086698738
 20
5.37905297123693
 30
0.0
 11
3.94438629025211
 21
5.50259816004679
 31
0.0
  0
LINE
  8
9
  6
CONTINUOUS
 62
9
 10
3.94438629025211
 20
5.50259816004679
 30
0.0
 11
3.93250199563934
 21
5.45403105655526
 31
0.0
  0
LINE
  8
9
  6
CONTINUOUS
 62
9
 10
3.92023788798116
 20
6.38544853053276
 30
0.0
 11
3.79526763459599
 21
6.38817539115376
 31
0.0
  0
LINE
  8
9
  6
CONTINUOUS
 62
9
 10
3.79526763459599
 20
6.38817539115376
 30
0.0
 11
3.84497045150747
 21
6.38273204741447
 31
0.0
  0
LINE
  8
9
  6
CONTINUOUS
 62
9
 10
2.91454757657933
 20
6.37988102769773
 30
0.0
 11
2.92
 21
6.255
 31
0.0
  0
LINE
  8
9
  6
CONTINUOUS
 62
9
 10
2.92
 20
6.255
 30
0.0
 11
2.92218096936827
 21
6.30495241107909
 31
0.0
  0
LINE
  8
9
  6
CONTINUOUS
 62
9
 10
2.91513530868573
 20
5.38246533040381
 30
0.0
 11
2.86107540789362
 21
5.26975984195561
 31
0.0
  0
LINE
  8
9
  6
CONTINUOUS
 62
9
 10
2.86107540789362
 20
5.26975984195561
 30
0.0
 11
2.88654625473599
 21
5.31278583364823
 31
0.0
  0
LINE
  8
9
  6
CONTINUOUS
 62
9
 10
2.42
 20
4.23
 30
0.0
 11
2.42
 21
4.38
 31
0.0
  0
LINE
  8
9
  6
CONTINUOUS
 62
9
 10
2.42
 20
4.38
 30
0.0
 11
2.38464466094067
 21
4.41535533905933
 31
0.0
  0
LINE
  8
9
  6
CONTINUOUS
 62
9
 10
1.12964956659704
 20
4.7797927717598
 30
0.0
 11
1.08454369666016
 21
4.92285031436849
 31
0.0
  0
LINE
  8
9
  6
CONTINUOUS
 62
9
 10
1.08454369666016
 20
4.92285031436849
 30
0.0
 11
1.0953656773609
 21
4.87403551401334
 31
0.0
  0
LINE
  8
9
  6
CONTINUOUS
 62
9
 10
0.729762112019053
 20
5.37455146946441
 30
0.0
 11
0.854732365404285
 21
5.37182460884622
 31
0.0
  0
LINE
  8
9
  6
CONTINUOUS
 62
9
 10
0.854732365404285
 20
5.37182460884622
 30
0.0
 11
0.805029548492684
 21
5.37726795258439
 31
0.0
  0
LINE
  8
9
  6
CONTINUOUS
 62
9
 10
1.73537086698738
 20
5.37905297123693
 30
0.0
 11
1.75438629025211
 21
5.50259816004679
 31
0.0
  0
LINE
  8
9
  6
CONTINUOUS
 62
9
 10
1.75438629025211
 20
5.50259816004679
 30
0.0
 11
1.74250199563934
 21
5.45403105655526
 31
0.0
  0
LINE
  8
9
  6
CONTINUOUS
 62
9
 10
1.73023788798116
 20
6.38544853053276
 30
0.0
 11
1.60526763459599
 21
6.38817539115376
 31
0.0
  0
LINE
  8
9
  6
CONTINUOUS
 62
9
 10
1.60526763459599
 20
6.38817539115376
 30
0.0
 11
1.65497045150747
 21
6.38273204741447
 31
0.0
  0
LINE
  8
9
  6
CONTINUOUS
 62
9
 10
0.732930282297577
 20
6.3845996218592
 30
0.0
 11
0.62606629846243
 21
6.44944627912757
 31
0.0
  0
LINE
  8
9
  6
CONTINUOUS
 62
9
 10
0.62606629846243
 20
6.44944627912757
 30
0.0
 11
0.666388528676273
 21
6.41988079671003
 31
0.0
  0
LINE
  8
9
  6
CONTINUOUS
 62
9
 10
0.0799999999999998
 20
6.88
 30
0.0
 11
0.23
 21
6.88
 31
0.0
  0
LINE
  8
9
  6
CONTINUOUS
 62
9
 10
0.23
 20
6.88
 30
0.0
 11
0.23
 21
6.93
 31
0.0
  0
ENDSEC
  0
EOF
